<svg xmlns="http://www.w3.org/2000/svg" width="1200" height="680" viewBox="0 0 1200 680"><rect width="1200" height="680" fill="#FDFDF5"/><style>text{font-family:Montserrat,Arial,sans-serif;fill:#17213D}.title{font-size:32px;font-weight:700;fill:#3D568F}.label{font-size:22px}.small{font-size:18px}.value{font-size:21px;font-weight:700;fill:#3D568F}.grid{stroke:#DCE5F6;stroke-width:1}</style><text class="title" x="60" y="62">Production HTTP: пропускная способность и p95</text><line class="grid" x1="100" y1="540" x2="1120" y2="540"/><line class="grid" x1="100" y1="430" x2="1120" y2="430"/><line class="grid" x1="100" y1="320" x2="1120" y2="320"/><line class="grid" x1="100" y1="210" x2="1120" y2="210"/><line class="grid" x1="100" y1="100" x2="1120" y2="100"/><rect x="150" y="520.8088419994976" width="110" height="19.191158000502387" rx="10" fill="#9FBAF1" stroke="#3D568F"/>
      <text class="value" x="205" y="505.8088419994976" text-anchor="middle">5.73 RPS</text>
      <circle cx="205" cy="161.79550142422158" r="10" fill="#3D568F"/><text class="small" x="220" y="167.79550142422158">385.05 мс</text>
      <text class="label" x="205" y="585" text-anchor="middle">1 потоков</text><rect x="395" y="446.7570962069832" width="110" height="93.24290379301684" rx="10" fill="#9FBAF1" stroke="#3D568F"/>
      <text class="value" x="450" y="431.7570962069832" text-anchor="middle">27.84 RPS</text>
      <circle cx="450" cy="140" r="10" fill="#3D568F"/><text class="small" x="465" y="146">407.24 мс</text>
      <text class="label" x="450" y="585" text-anchor="middle">5 потоков</text><line x1="205" y1="161.79550142422158" x2="450" y2="140" stroke="#3D568F" stroke-width="5"/><rect x="640" y="341.28945826006867" width="110" height="198.71054173993133" rx="10" fill="#9FBAF1" stroke="#3D568F"/>
      <text class="value" x="695" y="326.28945826006867" text-anchor="middle">59.33 RPS</text>
      <circle cx="695" cy="258.11216972792454" r="10" fill="#3D568F"/><text class="small" x="710" y="264.11216972792454">286.99 мс</text>
      <text class="label" x="695" y="585" text-anchor="middle">10 потоков</text><line x1="450" y1="140" x2="695" y2="258.11216972792454" stroke="#3D568F" stroke-width="5"/><rect x="885" y="140" width="110" height="400" rx="10" fill="#9FBAF1" stroke="#3D568F"/>
      <text class="value" x="940" y="125" text-anchor="middle">119.43 RPS</text>
      <circle cx="940" cy="276.32256163441707" r="10" fill="#3D568F"/><text class="small" x="955" y="282.32256163441707">268.45 мс</text>
      <text class="label" x="940" y="585" text-anchor="middle">20 потоков</text><line x1="695" y1="258.11216972792454" x2="940" y2="276.32256163441707" stroke="#3D568F" stroke-width="5"/><text class="small" x="100" y="635">Столбцы: RPS. Линия: p95. Ошибок на всех этапах: 0.</text></svg>